<svg xmlns="http://www.w3.org/2000/svg" viewBox="0 0 400 160" width="2400" height="960">
  <defs>
    <style>
      @import url('https://fonts.googleapis.com/css2?family=Cormorant+Infant:wght@300;400&amp;family=Cormorant+Garamond:ital,wght@1,300&amp;display=swap');
    </style>
  </defs>

  <text x="110" y="120" font-family="'Cormorant Infant', Georgia, serif" font-size="80" font-weight="400" fill="#FFFFFF" text-anchor="middle" letter-spacing="3">A</text>

  <g transform="translate(188, 4) scale(1.35)">
    <path d="M20,48 L18,25 L18,20 L20,18 L20,14 L22,12 L22,3" stroke="rgba(255,255,255,0.3)" stroke-width="1.2" fill="none" stroke-linecap="round" stroke-linejoin="round"/>
    <path d="M18,25 Q14,22 10,18 Q14,17 18,20" fill="#C0392B" opacity="0.9"/>
    <path d="M18,20 Q22,16 26,13 Q23,17 20,20" fill="#D4764E" opacity="0.95"/>
    <path d="M20,18 Q15,14 12,9 Q16,10 20,14" fill="#C0392B" opacity="0.85"/>
    <path d="M20,14 Q24,9 28,5 Q25,10 22,15" fill="#D4764E" opacity="0.9"/>
    <path d="M22,12 Q17,7 15,2 Q19,5 22,9" fill="#C0392B" opacity="0.8"/>
  </g>

  <text x="205" y="120" font-family="'Cormorant Garamond', Georgia, serif" font-size="52" font-weight="300" font-style="italic" fill="#C0392B" text-anchor="middle">&amp;</text>
  <text x="295" y="120" font-family="'Cormorant Infant', Georgia, serif" font-size="80" font-weight="400" fill="#FFFFFF" text-anchor="middle" letter-spacing="3">D</text>
  <line x1="145" y1="138" x2="260" y2="138" stroke="#C0392B" stroke-width="0.8" opacity="0.3"/>
</svg>